<svg xmlns="http://www.w3.org/2000/svg" width="36" height="36" viewBox="0 0 36 36"><path fill="#ff8b00" d="M18 35.3A17.3 17.3 0 1 1 35.3 18 17.4 17.4 0 0 1 18 35.3zm0-33.2A15.9 15.9 0 1 0 33.9 18 15.9 15.9 0 0 0 18 2.1z"/><path fill="none" d="M22.9 18a4.9 4.9 0 1 1-9.8 0 5.8 5.8 0 0 1 .4-1.9h-2.8v7.3a1.8 1.8 0 0 0 1.8 1.8h10.9a1.8 1.8 0 0 0 1.8-1.8v-7.3h-2.6a5.8 5.8 0 0 1 .3 1.9z"/><path fill="none" d="M14.8 18a3.2 3.2 0 0 0 3.2 3.2 3.2 3.2 0 0 0 3.2-3.2 3.1 3.1 0 0 0-.6-1.9h-5.1a3.2 3.2 0 0 0-.7 1.9zm7-7h3.1v3.12h-3.1z"/><path fill="#fff" d="M23.4 9H12.6A3.7 3.7 0 0 0 9 12.6v10.8a3.7 3.7 0 0 0 3.6 3.6h10.8a3.7 3.7 0 0 0 3.6-3.6V12.6A3.7 3.7 0 0 0 23.4 9zm-1.6 2h3.1v3.2h-3.1zm3.4 12.4a1.8 1.8 0 0 1-1.8 1.8H12.5a1.8 1.8 0 0 1-1.8-1.8v-7.3h2.8a4.8 4.8 0 0 1 4.5-3 4.9 4.9 0 0 1 4.6 3h2.6z"/><path fill="#fff" d="M22.6 16.1a4.9 4.9 0 0 0-4.6-3 4.8 4.8 0 0 0-4.5 3 5.8 5.8 0 0 0-.4 1.9 4.9 4.9 0 1 0 9.8 0 5.8 5.8 0 0 0-.3-1.9zM18 21.2a3.2 3.2 0 0 1-3.2-3.2 3.2 3.2 0 0 1 5.8-1.9 3.1 3.1 0 0 1 .6 1.9 3.2 3.2 0 0 1-3.2 3.2z"/></svg>