<svg id="Layer_1" data-name="Layer 1" xmlns="http://www.w3.org/2000/svg" width="200" height="70" viewBox="0 0 200 70"><title>logo-w-white</title><path d="M66,44h5.6v4a12.6,12.6,0,0,1-.1,1.6h.1c1-3.3,3.8-6,7.4-6h1.1v5.8H78.7a6.6,6.6,0,0,0-6.4,4.9,14.6,14.6,0,0,0-.5,3.8v9.2H66Z" fill="#ff8b00"/><path d="M93.3,43.4c6.7,0,10.3,4.9,10.3,11.1,0,.7-.1,2.2-.1,2.2H87.4c.3,4.1,3.5,6.2,7,6.2a11.8,11.8,0,0,0,6.7-2.5l2.3,4.1A14.6,14.6,0,0,1,94,67.9c-7.8,0-12.6-5.6-12.6-12.3S86.3,43.4,93.3,43.4Zm4.5,9.4c-.1-3.2-2.1-4.9-4.7-4.9a5.4,5.4,0,0,0-5.5,4.9Z" fill="#ff8b00"/><path d="M108.2,60.4a10,10,0,0,0,6.4,2.5c1.6,0,3-.7,3-2.1,0-3.5-11.3-3-11.3-10.5,0-4.4,3.9-6.9,8.9-6.9s7.8,2.7,7.8,2.7l-2.1,4.3a9,9,0,0,0-5.7-2c-1.5,0-3,.6-3,2.1,0,3.3,11.3,2.9,11.3,10.4,0,3.8-3.3,7-8.9,7a12.7,12.7,0,0,1-9-3.5Z" fill="#ff8b00"/><path d="M138.3,43.4c6.1,0,8.9,3.5,8.9,3.5l-2.5,4a9.1,9.1,0,0,0-6.1-2.5,6.9,6.9,0,0,0-7.1,7.2,7.1,7.1,0,0,0,7.3,7.3,10.6,10.6,0,0,0,6.8-3l2.3,4.2a13.4,13.4,0,0,1-9.6,3.8c-7.8,0-12.7-5.5-12.7-12.3S130.5,43.4,138.3,43.4Z" fill="#ff8b00"/><path d="M150.1,44h5.8V57.8c0,2.8.7,4.8,3.6,4.8s6.6-3.8,6.6-7.9V44h5.8V67.3h-5.6V64.7a13.3,13.3,0,0,1,.1-1.7h-.1a9.1,9.1,0,0,1-8.1,4.9c-5,0-8.1-2.6-8.1-8.9Z" fill="#ff8b00"/><path d="M186.7,43.4c6.7,0,10.3,4.9,10.3,11.1,0,.7-.1,2.2-.1,2.2H180.8c.3,4.1,3.5,6.2,7,6.2a11.8,11.8,0,0,0,6.7-2.5l2.2,4.1a14.2,14.2,0,0,1-9.4,3.4c-7.7,0-12.5-5.6-12.5-12.3S179.7,43.4,186.7,43.4Zm4.4,9.4c-.1-3.2-2-4.9-4.6-4.9s-5,1.8-5.6,4.9Z" fill="#ff8b00"/><path d="M3,2.1H8.8V26.5c0,2.6.8,3.2,2.3,3.2H12v5.1a9.5,9.5,0,0,1-1.8.2C7,34.9,3,34,3,27.4Z" fill="#ff8b00"/><path d="M27.4,10.7c7.1,0,12.9,5.1,12.9,12.3S34.5,35.2,27.4,35.2,14.6,30.1,14.6,23,20.3,10.7,27.4,10.7Zm0,19.5a6.9,6.9,0,0,0,7-7.2,7,7,0,0,0-7-7.3A7,7,0,0,0,20.5,23,6.9,6.9,0,0,0,27.4,30.2Z" fill="#ff8b00"/><path d="M43.7,38.4a5.1,5.1,0,0,0,2.6,1,4.3,4.3,0,0,0,4-3.1l.9-2-9.8-23h6.5l4.9,13.4a25.7,25.7,0,0,1,.9,3.2h.1a29.1,29.1,0,0,1,.7-3.1l4.6-13.5h6.4L55,38.2a8.7,8.7,0,0,1-13.2,4.5Z" fill="#ff8b00"/><path d="M92.9,2.1h5.8V26.5c0,2.6.8,3.2,2.3,3.2h.9v5.1a9.5,9.5,0,0,1-1.8.2c-3.2,0-7.2-.9-7.2-7.5Z" fill="#ff8b00"/><circle cx="101.4" cy="31.1" r="3.7" fill="#ff8b00"/><circle cx="11.4" cy="31.1" r="3.7" fill="#ff8b00"/><path d="M74,25.2l.8-.5Z" fill="#ff8b00"/><path d="M83.1,31.4a.1.1,0,0,0-.1.1h.1Z" fill="#ff8b00"/><path d="M89.4,28.3c-.3-2-1-6.4-2.8-7.7s-2-1.3-4.1-1.4h-.9c-4.1,0-15,.5-15,8.6,0,5.1,4,8,8.6,8a8.8,8.8,0,0,0,7.2-3.5l.6-.8h.2c.7,2.1,2.7,4.1,4.4,3.6S89.7,30.6,89.4,28.3Zm-6.9-4.2a7.5,7.5,0,0,1-3.1,6l-.6.3a4.5,4.5,0,0,1-2,.4,4.3,4.3,0,0,1-2.4-.6,1,1,0,0,1-.5-.4,3.3,3.3,0,0,1-1-2.3,3.1,3.1,0,0,1,.9-2.1h.1c.1,0,.1,0,.1-.1l.8-.5a3.3,3.3,0,0,1,1.2-.5,20.5,20.5,0,0,1,5.4-.7h1.1Z" fill="#fff"/><ellipse cx="71.3" cy="13.5" rx="2.9" ry="4.1" transform="translate(1.4 33) rotate(-26.3)" fill="#fff"/><ellipse cx="78.7" cy="11.8" rx="2.9" ry="4.3" fill="#fff"/><ellipse cx="86" cy="14" rx="4.1" ry="3" transform="translate(51 93.8) rotate(-75.6)" fill="#fff"/></svg>