<svg xmlns="http://www.w3.org/2000/svg" width="36" height="36" viewBox="0 0 36 36"><path fill="#ff8b00" d="M18 35.3A17.3 17.3 0 1 1 35.3 18 17.4 17.4 0 0 1 18 35.3zm0-33.2A15.9 15.9 0 1 0 33.9 18 15.9 15.9 0 0 0 18 2.1z"/><path fill="#fff" d="M25.8 12.4a4.1 4.1 0 0 0 1.7-2.3 8.3 8.3 0 0 1-2.6 1 4 4 0 0 0-4.7-.9 4 4 0 0 0-2.4 4.6 10.9 10.9 0 0 1-8.4-4.3 4.1 4.1 0 0 0 1.2 5.6 3.3 3.3 0 0 1-1.9-.6 4.1 4.1 0 0 0 3.4 4.1 3.2 3.2 0 0 1-1.9.1 4 4 0 0 0 3.8 2.9 8 8 0 0 1-6.1 1.7A11.6 11.6 0 0 0 26 13.9a5 5 0 0 0 2.1-2.2 5.6 5.6 0 0 1-2.3.7z"/></svg>